/* XPM */
static char *_0eaaa62567f418b9004dfdba612df12ipArbn94oJW3O8Tv[] = {
/* columns rows colors chars-per-pixel */
"32 32 159 2 ",
"   c #2C1E0D",
".  c #2F200E",
"X  c #31220F",
"o  c #24211B",
"O  c #2C271F",
"+  c #362511",
"@  c #382712",
"#  c #3D2B15",
"$  c #342C1E",
"%  c #3C2D1A",
"&  c #3E321E",
"*  c #2B2720",
"=  c #2E2A22",
"-  c #322D24",
";  c #322F29",
":  c #353026",
">  c #3B3223",
",  c #36322A",
"<  c #3D362A",
"1  c #3A3731",
"2  c #3D3931",
"3  c #412E17",
"4  c #422F18",
"5  c #43311A",
"6  c #49361B",
"7  c #4E391E",
"8  c #523D1F",
"9  c #423522",
"0  c #453924",
"q  c #4D3C24",
"w  c #443B2C",
"e  c #483D2A",
"r  c #533D22",
"t  c #433E33",
"y  c #4D412C",
"u  c #544224",
"i  c #5B4424",
"p  c #5E4824",
"a  c #54432A",
"s  c #59462C",
"d  c #5E4B2B",
"f  c #454035",
"g  c #4B4232",
"h  c #45433D",
"j  c #4A453B",
"k  c #4E483E",
"l  c #594731",
"z  c #534835",
"x  c #5C4A34",
"c  c #5D4C3A",
"v  c #5F503E",
"b  c #614724",
"n  c #634B25",
"m  c #694E24",
"M  c #654D2A",
"N  c #684E29",
"B  c #6C5124",
"V  c #65502E",
"C  c #6C522A",
"Z  c #725425",
"A  c #785727",
"S  c #765827",
"D  c #73562B",
"F  c #785728",
"G  c #75592A",
"H  c #7A5B2B",
"J  c #644E30",
"K  c #614F3B",
"L  c #635133",
"P  c #6D5531",
"I  c #62523E",
"U  c #735B32",
"Y  c #7B5F31",
"T  c #705A3B",
"R  c #7E6133",
"E  c #494640",
"W  c #4D4A43",
"Q  c #494748",
"!  c #4B4949",
"~  c #514F49",
"^  c #5B5246",
"/  c #545049",
"(  c #59554E",
")  c #585655",
"_  c #5D5B55",
"`  c #5C5C5B",
"'  c #625140",
"]  c #6E5B40",
"[  c #786342",
"{  c #76674C",
"}  c #64605B",
"|  c #575A69",
" . c #6C6A65",
".. c #6C6C75",
"X. c gray47",
"o. c #816334",
"O. c #8B6A37",
"+. c #826639",
"@. c #8B6B3A",
"#. c #85827C",
"$. c #3D55B0",
"%. c #58659E",
"&. c #616885",
"*. c #5365AA",
"=. c #2D4DD5",
"-. c #2D4ED9",
";. c #2D50DE",
":. c #3E5BD3",
">. c #3655D9",
",. c #3758DD",
"<. c #2E52ED",
"1. c #3758E7",
"2. c #3959E2",
"3. c #3257EF",
"4. c #355AEE",
"5. c #2E54F5",
"6. c #3157F3",
"7. c #345AF4",
"8. c #385EF3",
"9. c #3E63F3",
"0. c #3C61F3",
"q. c #3F64F3",
"w. c #3B60F4",
"e. c #3B61F3",
"r. c #405FDE",
"t. c #516CDD",
"y. c #667BD9",
"u. c #4162E5",
"i. c #4465E8",
"p. c #4A69E8",
"a. c #506EED",
"s. c #5976EC",
"d. c #5E78E8",
"f. c #4065F3",
"g. c #4467F3",
"h. c #4166F4",
"j. c #4367F4",
"k. c #4467F4",
"l. c #4266F3",
"z. c #466AF3",
"x. c #4368F4",
"c. c #4468F4",
"v. c #4469F4",
"b. c #4569F5",
"n. c #4568F5",
"m. c #4669F5",
"M. c #456AF5",
"N. c #476AF5",
"B. c #466AF6",
"V. c #4569F5",
"C. c #486CF6",
"Z. c #496CF6",
"A. c #486CF5",
"S. c #486CF6",
"D. c #6079E2",
"F. c #7D839A",
"G. c #7983B6",
"H. c #7488DF",
"J. c #808BBA",
/* pixels */
"0.7.7.7.7.5.5.5.6.5.5.1.8.8.7.s.p.g.7.7.7.7.7.8.Z.Z.B.B.Z.Z.B.Z.",
"w.7.7.8.7.6.6.6.6.6.D.y.J.W } ] m 0 1 _ 7.8.7.8.n.n.M.B.B.n.M.A.",
"7.7.w.n.n.s...k { i C i / ` ` X.h w a - n.h.7.7.8.8.8.8.7.6.6.7.",
"6.7.w.N.n.$.> s u 0 > - - 9 z [ Y D o.; n.f.8.8.8.8.6.7.5.5.5.5.",
"5.5.7.8.8.r.# o , w q J U o.P J 4 4 Y ; 6.8.g.g.B.x.5.5.5.5.5.5.",
"6.7.7.w.8.,.Z $ w +.+.] ' K c q % 4 Y = 5.7.l.l.x.q.5.5.5.5.5.5.",
"w.v.n.n.0.u.Z 9 9 +.' ' ' ' c q % 4 D = 5.6.3.3.7.5.5.5.7.7.7.8.",
"9.A.Z.Z.h.i.m q > o.K K ' I c q 3 4 G = 5.5.5.5.5.5.5.5.7.7.7.7.",
"A.A.A.Z.9.p.N q : R L v c ^ x q # 5 D = 7.7.7.7.7.6.5.5.6.7.6.5.",
"z.n.n.A.9.5.& u O C x l x l l q # 4 P = 7.7.7.8.7.7.5.7.7.7.5.5.",
"w.8.w.8.7.5.< m * U L s l l i q 3 # d , 7.5.5.5.5.7.h.x.6.5.5.5.",
"w.7.7.7.6.5.t B * M N a l r r r 5 # d 1 5.5.5.5.5.7.z.A.6.6.5.7.",
"8.7.7.5.5.5.j B - s C r r r r u u b p t =.5.7.7.6.8.n.A.A.n.x.n.",
"7.7.7.7.5.7.( B > 0 M r r i p p b u a s f j 4.w.w.w.x.x.x.x.n.x.",
"7.7.w.B.M.M.F.B & > C i n d u q p b 8 4 p p , &.n.x.8.7.8.8.7.6.",
"7.7.w.S.B.B.B.c 6 - C p q q p n r 7 5 @ # 4 n y , *.8.8.6.6.5.5.",
"6.8.e.A.9.8.8.9.k O > d C i 7 6 6 4 4 + + @ 3 6 M a 2 a.6.5.5.5.",
"7.7.w.n.9.8.6.7.7.W : s C 8 6 6 4 # @ . X + @ # # m P g 1.5.5.5.",
"5.5.7.3.7.5.5.5.6._ > - a R u 4 3 # @   X + X 6 C P y * 2.7.7.7.",
"5.7.5.6.5.5.5.5.6.#.p 0 * < U C # @ # +   @ B o.a - : > 2.7.7.7.",
"7.7.w.q.v.h.v.v.h.#.C n q O : P G r q 8 i H x : * 0 p 9 1.5.5.5.",
"5.7.w.M.v.v.v.h.h.| n B m u $ : a @.U O.P < * > u N H > >.5.5.5.",
"5.6.5.5.3.7.7.3.6.%.V G S S i & * w J w - - a n F G H & <.5.5.5.",
"5.5.5.6.5.5.<.5.5.-.I Z B Z B n e O ; - 0 b m H Z S G > <.5.5.5.",
"M.M.M.M.A.A.M.M.A.M./ u B B B B n & * a M F S S Z Z B f ;.5.5.5.",
"M.M.M.x.M.x.M.M.v.v.M.~ s m B Z G > = C H H S Z B p ^ y.<.5.5.5.",
"7.7.3.7.7.7.6.7.7.e.w.8. .q m Z F & = C Z H F B u W 8.7.8.6.5.5.",
"5.5.6.6.5.7.5.5.6.3.8.7.8. .0 m Z 5 = B H S C g _ A.7.7.8.7.7.5.",
"7.7.8.h.v.x.v.v.v.n.v.6.6.6.) w C 5 = D G i 2 f.8.8.7.7.q.n.n.x.",
"7.7.8.z.v.v.h.v.n.x.v.7.6.5.5.Q y > * M y ` 7.7.7.6.7.7.h.x.x.n.",
"5.5.5.3.7.6.7.6.6.3.7.z.g.6.5.5.d., * 2 H.5.5.5.5.5.5.5.7.5.7.7.",
"5.5.5.5.5.5.5.5.5.5.5.n.n.7.5.5.5.5.h 5.5.5.5.5.5.5.5.5.5.5.5.5."
};
