/* XPM */
static char *_66841766d814a59cd202509f302e46aN3EhTCxLzt1DvZ1j[] = {
/* columns rows colors chars-per-pixel */
"32 32 141 2 ",
"   c #752904",
".  c #712A09",
"X  c #AF670D",
"o  c #B1650E",
"O  c #AE6615",
"+  c #AD6519",
"@  c #B16513",
"#  c #DC9614",
"$  c #DA9813",
"%  c #D99719",
"&  c #D69818",
"*  c #EBAF1C",
"=  c #E9B116",
"-  c #E6B21A",
";  c #E9B01A",
":  c #F7D74F",
">  c #FBD64C",
",  c #F6D84D",
"<  c #F8D84A",
"1  c #F6D755",
"2  c #FAD551",
"3  c #FCF55F",
"4  c #FCF462",
"5  c #FBF469",
"6  c #2E54F5",
"7  c #2E54F5",
"8  c #3056F1",
"9  c #3157F1",
"0  c #3257F1",
"q  c #3157F2",
"w  c #3157F3",
"e  c #3257F2",
"r  c #3055F4",
"t  c #3157F4",
"y  c #3157F5",
"u  c #3257F5",
"i  c #3157F3",
"p  c #3359F2",
"a  c #3359F3",
"s  c #3459F2",
"d  c #355BF2",
"f  c #355BF3",
"g  c #365CF3",
"h  c #375CF3",
"j  c #3359F4",
"k  c #3259F5",
"l  c #3359F5",
"z  c #335AF5",
"x  c #3359F6",
"c  c #335AF6",
"v  c #3459F5",
"b  c #345BF4",
"n  c #355BF4",
"m  c #345AF5",
"M  c #345BF5",
"N  c #3459F6",
"B  c #345AF6",
"V  c #355AF6",
"C  c #345BF6",
"Z  c #355CF4",
"A  c #355CF5",
"S  c #365CF4",
"D  c #365DF4",
"F  c #375DF4",
"G  c #345AF4",
"H  c #395FF1",
"J  c #385EF2",
"K  c #395EF2",
"L  c #385EF3",
"P  c #385DF4",
"I  c #385EF4",
"U  c #385EF5",
"Y  c #395EF4",
"T  c #3B60F3",
"R  c #3B61F3",
"E  c #3C60F3",
"W  c #3C61F3",
"Q  c #3D63F3",
"!  c #3E63F3",
"~  c #3F63F3",
"^  c #3F64F3",
"/  c #3B60F4",
"(  c #4065F2",
")  c #4064F3",
"_  c #4467F3",
"`  c #4066F4",
"'  c #4166F4",
"]  c #4366F4",
"[  c #4367F4",
"{  c #4266F3",
"}  c #4468F4",
"|  c #4469F4",
" . c #4569F4",
".. c #4468F5",
"X. c #4568F5",
"o. c #4569F5",
"O. c #4669F4",
"+. c #4669F5",
"@. c #456AF4",
"#. c #456AF5",
"$. c #476BF4",
"%. c #466AF5",
"&. c #476AF5",
"*. c #476BF5",
"=. c #466AF6",
"-. c #476BF6",
";. c #4569F5",
":. c #486BF4",
">. c #486BF5",
",. c #486CF6",
"<. c #496CF6",
"1. c #486CF6",
"2. c #FFFED5",
"3. c #FEFDD6",
"4. c #FFFDD6",
"5. c #FFFCD7",
"6. c #FEFDD7",
"7. c #FFFDD7",
"8. c #FDFED6",
"9. c #FEFED6",
"0. c #FEFED7",
"q. c #FFFDD6",
"w. c #FEFCD8",
"e. c #FFFCD8",
"r. c #FEFDD8",
"t. c #FFFDD8",
"y. c #FEFCD9",
"u. c #FFFCD9",
"i. c #FDFDDB",
"p. c #FEFDDA",
"a. c #FFFDDA",
"s. c #FEFDDB",
"d. c #FDFEDA",
"f. c #FEFEDB",
"g. c #FEFCDC",
"h. c #FFFCDC",
"j. c #FEFDDC",
"k. c #FEFDDD",
"l. c #FEFEDC",
"z. c #FEFEDC",
"x. c #FFFFF5",
/* pixels */
"W m m C c 7 7 7 6 6 6 c c m m m m m m m m m m L ,.,.*.*.,.*.*.*.",
"R m m h h 9 9 9 u 9 7 g L g g C I h L C L g m L &.&.&.&.&.&.} &.",
"a m / X.} ] ] _ } } } } &.] &.] X.X.X.X.&.W C C g L L L a a c a ",
"u m W &.&.&.&.&.*.*.*.*.&.&.&.&.&.&.&.>.>.( L C g C g m 7 6 6 6 ",
"7 7 c L C g I C / *.*.g C Z C Z C L C m + @ O + &.( 9 7 6 6 6 6 ",
"9 a h g g C C C / *.1.R T T / / L m c u @ @ @ @ | ^ 8 7 6 6 6 6 ",
"R | &.&.( C m m C *.*.*.| } + + @ @ @ @ > > > > O + 7 7 c m c m ",
"W *.,.,.] C m m / *.*.*.*.*.X X @ o @ X > > < > X O 6 6 m C C C ",
",.,.,.,.Q 9 7 r + @ @ @ O O 4 4 4 4 4 4 3 3 3 3 4 4 O + c c u 7 ",
"*.&.&.&.Q 6 7 7 @ @ O @ X X 4 4 3 3 4 3 3 3 3 4 3 3 o O c c 6 7 ",
"! I + @ @ O O O > > 4 4 4 3 3 3 3 3 3 3 3 3 3 3 3 4 > 2   . 7 7 ",
"/ m + O o @ o X > > 3 3 3 3 4 4 3 3 3 3 3 3 3 3 4 4 : 2 .   9 u ",
"O + e.e.5 3 4 3 4 4 3 4 3 3 4 3 3 3 3 3 3 3 3 5 2.g.i.w.4 4     ",
"@ @ e.2.5 4 3 3 3 3 3 3 3 3 3 3 3 3 4 4 5 5 4 5 2.g.g.w.5 4     ",
"@ @ 2 1 2.e.5 3 3 3 3 4 3 4 3 4 4 4 2.g.g.g.e.w.5 4 & & > >     ",
"@ o > : 2.2.5 4 3 3 3 3 4 4 4 4 4 5 e.g.i.e.g.w.4 4 # # > >     ",
"@ @ > > 4 5 3.w.4 3 3 5 e.g.g.e.g.2.5 4 ; ; % % # # # # < >     ",
"o o > < 3 4 w.3.5 4 5 5 e.g.e.e.g.e.4 4 = ; # # # # # # > >     ",
"@ o > > 3 3 1 1 x.x.g.2.5 4 * ; % % # # # # # # ; ; > > > >     ",
"@ o > > 3 3 < 2 x.x.g.2.4 3 * = # # # # # # # # = ; > > 2 >     ",
"@ o * = 3 3 < > 4 4 - - # # # # # # # # = = > > > >         r r ",
"@ @ * * 3 3 > < 3 3 = - # # # # # # # # * * > 2 > 2 . .   . 6 6 ",
"r 7 O o = = < < 3 3 - * # # # # ; ; ; ;             6 6 6 6 6 6 ",
"7 7 O o * = > > 3 4 = = # # # # ; ; ; *           . 6 6 6 6 6 6 ",
"_ &.&.&.O o = = < < = = = *             m m m c 6 6 7 7 7 7 7 7 ",
"&.@.&.@.+ O ; ; > > ; * ; *   .         C L g C e r 7 u 7 7 7 7 ",
"9 9 h a a a O o @ @         ,.&.] } | @.@.@.&.} X.) h u m c 7 7 ",
"u 7 7 7 9 u + @ @ @       . &.&.&.&.&.&.>.>.>.>.>._ h m m m 9 9 ",
"c c L &.] &.] } } &.} 7 6 9 9 u c 9 c a C I I I L C C a X.&.] ] ",
"m m I ( X.] } } ] &.} a u 6 7 7 7 7 6 6 c c m m m m m h ( &.} } ",
"6 6 7 a c 9 c 9 a 9 9 ( _ a 7 7 7 6 6 6 6 6 6 6 u 6 6 7 7 9 a a ",
"7 6 7 7 7 6 6 6 6 6 9 &.@.a 7 7 7 6 6 6 6 6 6 6 6 6 6 6 6 7 7 7 "
};
