/* XPM */
static char *_3b0d7e909194936c28b9eb8b75c9276bFsYBcJSXGcJN3JD[] = {
/* columns rows colors chars-per-pixel */
"32 32 185 2 ",
"   c #3A5FF1",
".  c #345AF6",
"X  c #345BF6",
"o  c #3359F6",
"O  c #2E54F5",
"+  c #2E54F4",
"@  c #3358F6",
"#  c #345BF5",
"$  c #3B60F0",
"%  c #486CF6",
"&  c #496CF6",
"*  c #345AF5",
"=  c #335AF3",
"-  c #2E54F3",
";  c #3359F5",
":  c #3C60F1",
">  c #486BF6",
",  c #3258F3",
"<  c #355AF2",
"1  c #496BF5",
"2  c #486BF5",
"3  c #496BF4",
"4  c #476AF4",
"5  c #486CF5",
"6  c #496BF6",
"7  c #4469F4",
"8  c #345BF3",
"9  c #355BF2",
"0  c #355BF1",
"q  c #355BF0",
"w  c #345BF2",
"e  c #3056EF",
"r  c #2F54F1",
"t  c #3358F5",
"y  c #3459F6",
"u  c #486DF4",
"i  c #4369F3",
"p  c #345BF4",
"a  c #345AF4",
"s  c #3055F3",
"d  c #2E53F4",
"f  c #2F55F4",
"g  c #3459F5",
"h  c #476CF6",
"j  c #395DF0",
"k  c #3459F4",
"l  c #355AEF",
"z  c #486DF6",
"x  c #2E54F1",
"c  c #2E55F5",
"v  c #2F54F2",
"b  c #2E54F0",
"n  c #355BF3",
"m  c #355BF4",
"M  c #385EEE",
"N  c #345AF3",
"B  c #355AF3",
"V  c #355AF4",
"C  c #2E53F5",
"Z  c #2E55F2",
"A  c #4065F4",
"S  c #4367F4",
"D  c #476BF4",
"F  c #355BEE",
"G  c #2F55F1",
"H  c #2E55F4",
"J  c #2F55F3",
"K  c #335AF5",
"L  c #355BF5",
"P  c #4065F3",
"I  c #4368F4",
"U  c #355AF6",
"Y  c #486BF4",
"T  c #355BED",
"R  c #2F54F4",
"E  c #355BF6",
"W  c #456AF5",
"Q  c #4266F4",
"!  c #2F54F5",
"~  c #3055F4",
"^  c #3358F0",
"/  c #3358EE",
"(  c #3359EF",
")  c #3358EF",
"_  c #3359EE",
"`  c #3D62EF",
"'  c #4267F4",
"]  c #4067F5",
"[  c #335AF4",
"{  c #4167F4",
"}  c #3F65F4",
"|  c #2D53F4",
" . c #395FF0",
".. c #3158F4",
"X. c #3B60F3",
"o. c #355AEE",
"O. c #2E54F2",
"+. c #476CF4",
"@. c #476BF5",
"#. c #3459F0",
"$. c #3259F5",
"%. c #3057F3",
"&. c #3459F3",
"*. c #3B61F1",
"=. c #486BF3",
"-. c #476DF6",
";. c #2D55F3",
":. c #4064F3",
">. c #2F55EF",
",. c #345AF2",
"<. c #2F54EF",
"1. c #2F54F0",
"2. c #476CF5",
"3. c #3E64F4",
"4. c #2D53F5",
"5. c #3056F1",
"6. c #496DF6",
"7. c #3259F4",
"8. c #395EF0",
"9. c #2D53F2",
"0. c #3258F4",
"q. c #395EF1",
"w. c #355AF1",
"e. c #385FEF",
"r. c #375FF1",
"t. c #385EF2",
"y. c #3156F3",
"u. c #3056F4",
"i. c #3056F5",
"p. c #3157F1",
"a. c #345AF0",
"s. c #2F56F5",
"d. c #2F54F3",
"f. c #2E55F3",
"g. c #2D55F1",
"h. c #2E55F0",
"j. c #3056EE",
"k. c #4166F5",
"l. c #476AF6",
"z. c #476BF6",
"x. c #466CF6",
"c. c #345CF4",
"v. c #2E55F6",
"b. c #2F55F5",
"n. c #3054EF",
"m. c #4367F5",
"M. c #466CF5",
"N. c #355CF5",
"B. c #365BEB",
"V. c #3458F0",
"C. c #486AF5",
"Z. c #4167F3",
"A. c #355CEF",
"S. c #345BF1",
"D. c #3258F6",
"F. c #355CF2",
"G. c #365AF0",
"H. c #476DF4",
"J. c #4167F5",
"K. c #2F55F2",
"L. c #2E54EF",
"P. c #2F56F2",
"I. c #4368F5",
"U. c #4369F5",
"Y. c #3D64F5",
"T. c #2F55F0",
"R. c #355CF1",
"E. c #345BEF",
"W. c #486DF5",
"Q. c #486CF4",
"!. c #496DF4",
"~. c #496CF5",
"^. c #476DF5",
"/. c #355CF6",
"(. c #486CF3",
"). c #2E53F2",
"_. c #466BF6",
"`. c #3258EF",
"'. c #365BF1",
"]. c #4468F5",
"[. c #2F53F4",
"{. c #4468F4",
"}. c #4A6CF6",
"|. c #3054F1",
" X c #4367F6",
/* pixels */
"  . . X o O O O O O + @ . . . . . . . . . . # $ % % % % & % % % ",
"  . X * = - - + + + - ; * * * * * * * * * # # : % > > > > % & % ",
", X < & 1 2 2 3 2 4 2 5 6 6 6 6 % 6 > > 6 7 * 8 9 0 q w e r r r ",
"t y < 6 > > > > 6 & 5 u > 6 > > > > 6 6 % i # p p a p . s O O O ",
"d + f a g g g g < % h j a g g g g g k * + l 1 % % z x d c O O O ",
"v r b n p # . . m % h M N B V V 8 p # . C l > & % % Z O O + + + ",
"A 5 6 & S . . . m % % % > > > > D F O O O Z v G G - H J K L X . ",
"P % % % I * U U L Y Y Y 2 2 Y Y % T r G d H R f f H O O o . . E ",
"W % % & Q J ! R ~ ^ / ( ) ) _ _ ( ` ' ] [ K K K K K O + ; U J ~ ",
"% % % % { + O O O O O O C O O O - } % % p X X X U # | + ; X O O ",
" .V L V = + ..E . . . . . . X X.2 o.v O.O O O O O r +.@.#.O O O ",
"  . . # $.O %.# X X X X # V &.*.2 o.O O O O O O O b =.-._ R f f ",
"p . U O + O + O O O O O ;.h 5 :.>.v O O O H X . . ,.Y 5 5 5 z z ",
". m V <.r 1.r 1.b + C d O.h 2.3.O O | 4.+ 5.n 9 w q % > > > 1 3 ",
"$.X 9 5 % 6.% % & . . . . # 8 7.O K . . . 8.% % % z 8 # * # 9.+ ",
"0.X < % 6 h h -.h X . . . . X ; f 7.# X X q.h h h h L . . X O O ",
". X w.% 7 e.r.t.t.. . . . . . . * y.u.i.i.p.#.a.a.^ i.i.i.s.O O ",
"y L 0 6 I . . U . y . # L * * # 8 d.f.f.c O H f.f.- + O O O O O ",
"O f.g.h.x O O C O O j.k.l.l.@.z.l.5 2.x.# q.+.-.x.x.c.X X # X X ",
"O v.b.+ + + f.+ f.O n.m.& % % % % % % 2.8 8.% % % z c.. . . . . ",
"o * 0 M.M.M.M.M.x.. N.8 a.z % % 1 B.r v - V.C.Z.A.S.f.O O O O O ",
"D.c.F.z h h h h h c.X X # z h h 2 G.O O O a.H.J.N X O O O O O O ",
"O O + f.d.- f.- f.+ O O + - d.K.J + O O O d f.f.+ + O O O O O O ",
"b x x x x x x x x G x x x x L.P.O O + + O + O O O O O O O O O O ",
"I.I.I.I.I.I.I.I.I.U.I.I.I.I.I.Y.o o o o o ; o D.O O O O O O O O ",
"% % % % % % & % % & z z z % % { K . . . . . * [ ! O O O O O O O ",
"G T.r G r r G T.1.F.R.0 E.% & & W.u Q.!.W.~.5 5 5 ^.m N.N./.O O ",
"O + + H f.d.- J v ,.p # V 5 5 5 (.5 5 5 ~.5 5 ~.& & a p V # ).+ ",
"# X < > % % % 5 % % _.`.+ O.v r v v x >.N N N N N p # '.].& z % ",
"E . N 6.6.6.6.6.6.& h / [.O O O O O O f . E E E E E E w.{.6.}.6.",
"O + f.d.d.d.d.- f.- n.m.(.>.O O O O O O O O O O O O O + - d.v v ",
"O O O O O O O O O O |. X5 T.O O O O O O O O O O O O O O O O O O "
};
