/* XPM */
static char *_bad26c650b849ecc7555b8f391e6cf7WNLgnplSDfqe9xgT[] = {
/* columns rows colors chars-per-pixel */
"32 32 101 2 ",
"   c #1D1A16",
".  c #221E17",
"X  c #221F1A",
"o  c #26221B",
"O  c #29241C",
"+  c #2E281F",
"@  c #332A1B",
"#  c #382F1E",
"$  c #3D321E",
"%  c #2A2722",
"&  c #2D2922",
"*  c #2F2D28",
"=  c #332E26",
"-  c #322F29",
";  c #353026",
":  c #3B3324",
">  c #353129",
",  c #3B352A",
"<  c #3E392E",
"1  c #373430",
"2  c #3C3934",
"3  c #3D3C3B",
"4  c #423417",
"5  c #43351D",
"6  c #4E3E1F",
"7  c #573F1C",
"8  c #433622",
"9  c #443923",
"0  c #4C3D25",
"q  c #4B3F2A",
"w  c #503F23",
"e  c #423D35",
"r  c #61461F",
"t  c #4F4027",
"y  c #554224",
"u  c #5B4524",
"i  c #5E4A23",
"p  c #544429",
"a  c #59472A",
"s  c #5D4929",
"d  c #4B4437",
"f  c #46423B",
"g  c #4B453C",
"h  c #524635",
"j  c #5C4C35",
"k  c #524939",
"l  c #5D523F",
"z  c #644C24",
"x  c #6A4D25",
"c  c #634C29",
"v  c #684F29",
"b  c #675022",
"n  c #6C5224",
"m  c #6C522A",
"M  c #735425",
"N  c #795725",
"B  c #765927",
"V  c #7B5926",
"C  c #735629",
"Z  c #795728",
"A  c #765929",
"S  c #7B5C2B",
"D  c #655035",
"F  c #64533A",
"G  c #4E4C47",
"H  c #4D4C4B",
"J  c #544E43",
"K  c #5F5E5E",
"L  c #655940",
"P  c #685A45",
"I  c #6D6252",
"U  c gray40",
"Y  c #6E6E6D",
"T  c #737373",
"R  c gray49",
"E  c #80602D",
"W  c #80807F",
"Q  c #4256AC",
"!  c #3A57CD",
"~  c #2E52E7",
"^  c #3658E0",
"/  c #3759EC",
"(  c #3A5EEB",
")  c #2E54F5",
"_  c #3157F3",
"`  c #345AF4",
"'  c #385EF3",
"]  c #3D60EA",
"[  c #3C61F3",
"{  c #4F68CB",
"}  c #4E6CE3",
"|  c #4C6CEC",
" . c #5374EF",
".. c #5977EE",
"X. c #4367F3",
"o. c #4569F5",
"O. c #486CF6",
"+. c #868585",
"@. c gray54",
"#. c gray59",
"$. c gray62",
/* pixels */
"[ ` ` ` ` ) ) ) ) ) ) ` ` ` ` ` ` ` ` ` ` ` ` ' O.O.O.O.O.O.O.O.",
"[ ` ` ` ` ` _ _ _ _ _ ` ' ' ` ' ' ` ' ` ' ' ` ' o.o.o.o.o.o.o.o.",
"` ` ' o.X.o.o.X.o.o.X.o.o.o.o.o.o.o.o.o.o.[ ` ' ' ' ' ' ` ` _ _ ",
"_ ` [ O.o.o.o.o.o.O.o.o.o.o.o.o.o.o.o.o.o.X.` ` ' ` ` ` ) ) ) ) ",
") ) ` ' ' ^ ` ' [ } 1 & = = - e f [ ] ' ` ' o.o.O.[ _ ) ) ) ) ) ",
"_ ` ` ' { g e = = = = % , , > = = = > > > = = ; > , f g G G ) ) ",
"[ o.o.> = 9 q s c x v o = C S b x z z z s w p a s a t t q % _ ' ",
"[ O.O.9 z m A S A M v % > m Z M M x n B n r z B S S S V A O ` ` ",
"O.O.O.< M M M N M M r O = v Z N N E E x 7 5 4 r C B N N M O _ _ ",
"o.o.o., M M M M n M r O = z M M x M N r w q J L m C N M M O _ ) ",
"[ ' ' , i b z i z x z O = p z z r r m u P +.$.+.L z x m v X ) ) ",
"[ ` ` > $ : $ $ 5 0 8 X = 8 8 8 5 5 0 8 e W #.T d 8 8 9 8 . _ _ ",
"' ` ` - = + o o X X o o - % + % + % % X e T @.U e & & = % . o.o.",
"` ' ` > p p 0 6 w w 8 o - 8 q q w w w 0 e Y W K h w a w w X X.X.",
"` ` [ , z z u u c w w + - q s w j w c w q U Y K j z c z w X _ _ ",
") ` [ 1 x x x x z z w + 1 w m x x x x z q H Y K D x x v z X _ _ ",
"` ` [ > A M B M n n y O > a C n m M x x 7 k I P C B A S m o ) ) ",
"` ' [ < b M B M B B c O > v E S E E E M b M C B B B S S s o ) ) ",
") ) _ < M B M b n V i O > c S A Z N E M B M b b b M V S y % ` ` ",
") ) _ < C C b n M A y o > p n n x x E N M b b n C B A A s % ` ` ",
"` ` [ - M M n r M B u O ; u M C Z A E M x x b n C V Z C z * ) ) ",
") ` [ 2 A M M M M M z O ; s S A S E S M M M N N V V N M u * ) ) ",
") _ ) , n n M M M M u O > s V V Z N N M N N N N M M M A c - ) ) ",
") ) ~ f 6 b r r r x z o ; s V S Z Z M Z M n b b b b b C a > ) ) ",
"O.o.o. .. $ i b i n c o > s S S S S n S C b b m z z m v 0 1 ) ) ",
"o.o.o.o.X.& o t i b i O ; c S A C n n m z s v s 6 5 @     3 ) ) ",
"` ` / _ / | _   O u y o > p m i i i c 0 $ + %       ! ` [ ` ) ) ",
") ) ) _ ) ) _ _ 3   # o ; 0 y $ @ o .   X > O.O. .X.' ` ' ` _ ) ",
") ` [ X.o.o.o.o...O.X   . o   o > 3 / ' ' ' ` ` ' ' ` ' X.X.X.o.",
"` ` [ X.[ o.o.X.X.X.o.2 * Q ) X.) ) ) ) ` ` ` ` ` ` ` _ [ O.o.o.",
") ) _ _ _ ` _ _ _ _ _ X.X./ ) ) ) ) ) ) ) ) ) ) ) ) ) _ _ _ _ _ ",
") ) ) ) ) ) ) ) ) ) _ o.o._ ) ) ) ) ) ) ) ) ) ) ) ) ) ) _ ) ) ) "
};
