/* XPM */
static char *e57c78dd72e4452bf9c65eb8fe047afbpxfcqcMyhomiTsrY[] = {
/* columns rows colors chars-per-pixel */
"32 32 203 2 ",
"   c #08080C",
".  c #080F1C",
"X  c #1C1212",
"o  c #14151B",
"O  c #120F11",
"+  c #360A0B",
"@  c #2B1E1B",
"#  c #241816",
"$  c #3C1B1B",
"%  c #2D0F10",
"&  c #2E211E",
"*  c #34221E",
"=  c #3B211E",
"-  c #3E321D",
";  c #0E1929",
":  c #111C2B",
">  c #1A202D",
",  c #1A2534",
"<  c #1E2B3C",
"1  c #192536",
"2  c #292528",
"3  c #342522",
"4  c #392723",
"5  c #372925",
"6  c #3A2925",
"7  c #3D2D2B",
"8  c #312C2E",
"9  c #222A38",
"0  c #3D332E",
"q  c #491F1E",
"w  c #470E0E",
"e  c #70181B",
"r  c #41341F",
"t  c #482724",
"y  c #512120",
"u  c #443721",
"i  c #463922",
"p  c #4A3C25",
"a  c #42312E",
"s  c #473C2B",
"d  c #443532",
"f  c #493935",
"g  c #453A37",
"h  c #553D36",
"j  c #53432A",
"k  c #5A4A2D",
"l  c #4D4138",
"z  c #574639",
"x  c #614E2E",
"c  c #614F32",
"v  c #655234",
"b  c #6B5432",
"n  c #6D5936",
"m  c #61513A",
"M  c #735C37",
"N  c #745E3A",
"B  c #785F3B",
"V  c #66502F",
"C  c #76613B",
"Z  c #7B633C",
"A  c #212D42",
"S  c #273344",
"D  c #383D48",
"F  c #353853",
"G  c #2C3759",
"H  c #363D6D",
"J  c #3D4754",
"K  c #3D4565",
"L  c #4A4243",
"P  c #5B4C4A",
"I  c #464756",
"U  c #5D5459",
"Y  c #67544B",
"T  c #7A5649",
"R  c #6B5B57",
"E  c #6F564C",
"W  c #7D6641",
"Q  c #7F6840",
"!  c #444766",
"~  c #514F6C",
"^  c #545A62",
"/  c #4D5176",
"(  c #625F6F",
")  c #615F70",
"_  c #7E5D69",
"`  c #5B606A",
"'  c #63656F",
"]  c #746763",
"[  c #636479",
"{  c #7B7974",
"}  c #8F1C1E",
"|  c #9E1F22",
" . c #9C2428",
".. c #A62729",
"X. c #B5292C",
"o. c #C23A3C",
"O. c #81403C",
"+. c #866A3E",
"@. c #97524B",
"#. c #826A43",
"$. c #896F45",
"%. c #8C7245",
"&. c #8D7149",
"*. c #91774B",
"=. c #95794B",
"-. c #9A7C4D",
";. c #947746",
":. c #976457",
">. c #987F56",
",. c #85736A",
"<. c #8B7E79",
"1. c #916F6F",
"2. c #A57370",
"3. c #9F804F",
"4. c #9F8152",
"5. c #99835D",
"6. c #A38353",
"7. c #AD8C5A",
"8. c #A88956",
"9. c #B18F5B",
"0. c #9E8464",
"q. c #A98D64",
"w. c #AE936B",
"e. c #B5897C",
"r. c #AE8879",
"t. c #B6A17E",
"y. c #3F4A85",
"u. c #3E4EA3",
"i. c #515682",
"p. c #605F81",
"a. c #797B89",
"s. c #78759B",
"d. c #455AB3",
"f. c #5C66A3",
"g. c #7677A4",
"h. c #6A76BF",
"j. c #3B56CA",
"k. c #3553D4",
"l. c #364EC0",
"z. c #3356ED",
"x. c #3457E9",
"c. c #2E54F5",
"v. c #3157F2",
"b. c #345AF4",
"n. c #385EF3",
"m. c #3C62F3",
"M. c #425CCE",
"N. c #4662D8",
"B. c #576CD2",
"V. c #415DE1",
"C. c #5772E3",
"Z. c #4267F4",
"A. c #4569F5",
"S. c #496CF6",
"D. c #5676F5",
"F. c #857F96",
"G. c #7A90EF",
"H. c #718BF6",
"J. c #7992F9",
"K. c #6884F7",
"L. c #87858B",
"P. c #898799",
"I. c #97999A",
"U. c #968D8D",
"Y. c #A5898C",
"T. c #A19A8D",
"R. c #B4A793",
"E. c #999DAE",
"W. c #B098A7",
"Q. c #A8A8A7",
"!. c #B3AAA6",
"~. c #ABAAB9",
"^. c #B7B1B9",
"/. c #B2ADAE",
"(. c #D0AA98",
"). c #E1A394",
"_. c #CFBFA8",
"`. c #C3BDB6",
"'. c #D2AEA3",
"]. c #CBC2B5",
"[. c #E9C4B2",
"{. c #929FCF",
"}. c #8C99D1",
"|. c #9DA1C2",
" X c #AFB1C3",
".X c #BABDD5",
"XX c #A9B0D3",
"oX c #96A9F7",
"OX c #93A5EF",
"+X c #ADBDFB",
"@X c #A7B2E7",
"#X c #BAC1DE",
"$X c #BCC8F9",
"%X c #B9C1E7",
"&X c #C8C5C3",
"*X c #DED8CF",
"=X c #C4CCF7",
"-X c #CFD8FD",
";X c #D5D5EF",
":X c #E8DBE0",
">X c #DDE3FD",
",X c #E1E6FE",
"<X c #F0D5CC",
/* pixels */
"m.b.b.b.b.c.c.c.c.c.c.D.+X,X>X>X>XJ.c.c.b.b.b.n.S.S.S.S.S.S.S.S.",
"m.b.b.n.b.v.v.v.v.v.v.+XW.2.@.K K XXK.n.b.n.b.n.S.Z.A.A.A.A.A.A.",
"v.b.m.A.Z.Z.Z.Z.A.A.A.-XF.F.2.F G ^ $XA.Z.Z.b.b.n.n.n.n.b.v.b.b.",
"v.b.n.S.S.A.A.S.S.S.D.#X_ ~ ! F S J }.D.Z.Z.n.n.b.b.b.b.v.c.c.c.",
"c.v.b.n.n.b.n.n.n.A.oXa.9 S F L 8 D P.oXb.m.Z.A.Z.Z.v.c.c.c.c.c.",
"v.b.b.b.n.b.b.b.n.A.D.{.( 7 t #.h ; [ .XH.b.Z.Z.Z.Z.v.c.c.c.c.c.",
"n.A.A.A.Z.b.b.b.v.Z.OX/.Y T :.2.@.  7 R /.OXC.v.v.v.c.c.b.b.b.c.",
"m.S.S.S.Z.K.=X:X;X@X Xh 6 $ h :.@. .t a P L.OXv.c.c.c.c.b.b.b.b.",
"S.S.S.S.m.$X<X[.'.!.] 4 @ X = e.).o.$ 6 g R }.S.b.b.c.c.b.b.c.c.",
"S.A.A.A.m.>X(.r.1.Y f & * @ 4 Y.'.:.6 3 5 g U.oXb.b.v.c.b.b.c.c.",
"m.n.n.n.b.>X:.T z f 4 # * * = @.e.e.f d 0 d ] $Xc.b.Z.A.b.c.c.c.",
"m.b.b.b.v.>X0 t 4 7 * X 3 5 q .. .T d d f f P -Xc.v.A.S.v.v.c.b.",
"b.b.c.c.c.J.F.4 @ @ L P.3 4 y X.} # & 3 5 0 l >Xv.n.A.A.A.A.A.A.",
"b.b.b.b.b.b.G..X~. X.X X& @ q X. .% X X & & Y $Xb.m.A.A.A.A.Z.Z.",
"b.b.m.S.A.A.A.B.a.<.s.^.@ @ $ | | +   # l U |.H.S.A.m.n.n.n.b.c.",
"c.b.m.S.S.C.P.q.&.+.n `.& @ % e } w O 0 |.@XH.S.S.A.b.b.v.v.c.c.",
"b.n.n.C.P.q.3.+.Z n r ].& & X # e + X g  Xv.v.v.v.v.c.c.c.c.c.c.",
"b.N.F.q.-.%.#.+.n x - Q.] & O       5 P #Xb.v.v.v.v.v.c.v.c.c.c.",
"s.>.-.*.#.Z Z C C n - T.{ 2 ; . .   5 P `.g.S.m.m.m.m.b.b.b.b.b.",
"9.$.#.#.Z b C C C b C ].` 2 > : ; . 2 J /.$.T.C.S.m.n.n.b.b.b.b.",
"#.>.6.+.C b C Z ;.-.;.*XJ < 1 : : ; > A E.*.4.w.h.j.D ^ x.v.v.v.",
"p k $.-.3.+.3.+.Z ;.4.].S < 1 J S ; 1 < I.j m *.7.Y r - R B.c.c.",
"r p p h C 8.8.6.3.*.5.I.< < < { U : < < I.- i j c -.$.i i m g.c.",
"p r r r j k Z 8.8.%.].a.J < 1 Q.&X1 1 < I.- - j W 8.*.k i s u.c.",
"I p i u i s p p Q %.w.!.I J ^ !.].' S J Q.k #.7.>.#.Z j L l.c.c.",
"d.p i i i u p p n 3.Q R.R.I.R.q.5.T.L.T.t.9.-.*.#.M E I k.c.c.c.",
"b.k./ 0 r i p - Q 4.j j C 4.9.8.-.+.-.7.6.$.#.Z B b R b.b.c.c.c.",
"v.v.c.k.H 7 u u *.%.- i j j Z 5.;.3.-.#.#.+.Z M M W ( b.b.m.c.c.",
"b.b.n.Z.Z.N.i.l 3.M - - r p j n n k W M N M C Z C ' x.b.A.A.A.A.",
"b.b.n.Z.A.Z.A.f.$.c j - i r r v x j C b B W n v ' j.m.b.m.A.A.A.",
"c.c.v.v.v.v.c.p.=.M.y.0 - i i x x j Z Z Z C ) k.c.c.c.c.v.v.c.b.",
"c.c.c.c.c.v.x.{ ,.v.c.N.y.l i k k k n m i.j.c.c.c.c.c.c.c.c.c.c."
};
