/* XPM */
static char *d0babce18ca04c50d58e05d16436129fOtp5VV8oQtCpbcdV[] = {
/* columns rows colors chars-per-pixel */
"32 32 207 2 ",
"   c #08080C",
".  c #080F1C",
"X  c #1C1212",
"o  c #14151B",
"O  c #120F11",
"+  c #360A0B",
"@  c #2B1E1B",
"#  c #241816",
"$  c #3C1B1B",
"%  c #2D0F10",
"&  c #2E211E",
"*  c #34221E",
"=  c #3B211E",
"-  c #3E321D",
";  c #0E1929",
":  c #111C2B",
">  c #1A202D",
",  c #1E2B3C",
"<  c #192535",
"1  c #292528",
"2  c #342522",
"3  c #392723",
"4  c #372925",
"5  c #3A2925",
"6  c #3D2D2B",
"7  c #312C2E",
"8  c #222A38",
"9  c #3C3935",
"0  c #3F3625",
"q  c #491F1E",
"w  c #470E0E",
"e  c #70181B",
"r  c #41341F",
"t  c #482724",
"y  c #512120",
"u  c #443721",
"i  c #463922",
"p  c #4A3C25",
"a  c #42312E",
"s  c #473D29",
"d  c #443531",
"f  c #493935",
"g  c #443836",
"h  c #553D36",
"j  c #53432A",
"k  c #5A4A2D",
"l  c #494338",
"z  c #574738",
"x  c #4C422F",
"c  c #614E2E",
"v  c #614F32",
"b  c #645334",
"n  c #6B5432",
"m  c #6D5936",
"M  c #735C37",
"N  c #745E3A",
"B  c #785F3B",
"V  c #66502F",
"C  c #76613B",
"Z  c #7B633C",
"A  c #212D42",
"S  c #273344",
"D  c #373E48",
"F  c #353853",
"G  c #2C3759",
"H  c #3D4754",
"J  c #394D52",
"K  c #3D4564",
"L  c #3C5A69",
"P  c #3B667F",
"I  c #454843",
"U  c #594C49",
"Y  c #5C564B",
"T  c #474855",
"R  c #465555",
"E  c #5D5857",
"W  c #675649",
"Q  c #7A5649",
"!  c #6A5A54",
"~  c #6F564B",
"^  c #5D685F",
"/  c #7D6641",
"(  c #7F6840",
")  c #636859",
"_  c #70635F",
"`  c #6E624A",
"'  c #545A62",
"]  c #494B6A",
"[  c #7E5D69",
"{  c #46626D",
"}  c #5F617D",
"|  c #5B6269",
" . c #636C6B",
".. c #776964",
"X. c #787B73",
"o. c #6A716C",
"O. c #8F1C1E",
"+. c #9E1F22",
"@. c #9C2428",
"#. c #A62729",
"$. c #B5292C",
"%. c #C23A3C",
"&. c #81403C",
"*. c #866A3E",
"=. c #97524B",
"-. c #826A43",
";. c #896F45",
":. c #8C7245",
">. c #8D7149",
",. c #91774A",
"<. c #95794B",
"1. c #9A7C4D",
"2. c #947746",
"3. c #976457",
"4. c #87795D",
"5. c #987F56",
"6. c #8D7472",
"7. c #A57370",
"8. c #7A8279",
"9. c #9F804F",
"0. c #9F8152",
"q. c #9C855D",
"w. c #A38353",
"e. c #AD8C5A",
"r. c #A88956",
"t. c #B18F5B",
"y. c #AF905F",
"u. c #8F876E",
"i. c #A38D64",
"p. c #AD9467",
"a. c #B5897C",
"s. c #AE8879",
"d. c #B6A17E",
"f. c #2B648D",
"g. c #3A6987",
"h. c #2C6692",
"j. c #2E6A95",
"k. c #2F6D98",
"l. c #316E9C",
"z. c #366D92",
"x. c #32719E",
"c. c #3B7499",
"v. c #3475A3",
"b. c #3678A6",
"n. c #377BA9",
"m. c #397EAC",
"M. c #3A7CA5",
"N. c #577782",
"B. c #487894",
"V. c #787E87",
"C. c #3A80AE",
"Z. c #3C84B3",
"A. c #3E87B8",
"S. c #3F89BA",
"D. c #3E88B6",
"F. c #4C809D",
"G. c #70838B",
"H. c #4782A8",
"J. c #4289B7",
"K. c #428CBC",
"L. c #4889B5",
"P. c #679BBC",
"I. c #7BA2BF",
"U. c #438EC1",
"Y. c #4B94C4",
"T. c #4690C3",
"R. c #5599C6",
"E. c #72ABD0",
"W. c #858885",
"Q. c #938C8B",
"!. c #8B8E93",
"~. c #97999A",
"^. c #9C9489",
"/. c #A68F8C",
"(. c #B4A793",
"). c #979BA1",
"_. c #B19AA4",
"`. c #9AA5AD",
"'. c #8EA7B9",
"]. c #A8A8A8",
"[. c #B3ACA6",
"{. c #AEB6BB",
"}. c #B4B4B5",
"|. c #B3B0A8",
" X c #D0A998",
".X c #E1A394",
"XX c #C3BDB5",
"oX c #D1B8A5",
"OX c #CBC2B5",
"+X c #E9C3B2",
"@X c #86B2CF",
"#X c #9AB8CD",
"$X c #84B2D1",
"%X c #A8BDCA",
"&X c #A0BED2",
"*X c #99C0D9",
"=X c #BBC1C5",
"-X c #BAC8D3",
";X c #BED3E2",
":X c #B8D6E9",
">X c #C8C5C3",
",X c #D3D5D5",
"<X c #EDDBD2",
"1X c #CEDDE8",
"2X c #D2E2ED",
"3X c #DBE9F3",
"4X c #E2EEF6",
/* pixels */
"b.v.b.v.v.v.b.v.v.v.m.Z.$X3X4X4X4X:XE.R.T.U.U.S.A.Z.Z.Z.Z.Z.Z.D.",
"C.n.v.v.b.v.b.v.b.m.Z.E.%XK K [ 7._.:XT.U.U.A.A.Z.n.b.b.C.Z.S.S.",
"S.Z.n.v.v.v.v.n.m.A.J.;X' G F 6.7./.2XU.m.m.m.m.n.l.j.l.x.m.D.S.",
"T.K.J.Z.m.m.m.m.A.U.R.@XD A G ] ] N.,Xm.b.x.l.l.k.f.f.h.l.v.n.C.",
"T.R.Y.K.J.Z.J.J.U.Y.&X!.D 7 I F G < V.#Xx.l.h.h.h.f.h.h.l.l.x.v.",
"K.Y.Y.J.Z.A.K.U.R.$X-X .; h -.a q E %Xm.b.l.j.h.h.h.h.l.l.l.l.l.",
"S.K.J.Z.m.m.Z.R.&X[.! 5 O =.7.3.Q E _.@Xm.b.v.l.l.k.l.l.l.l.l.l.",
"Z.C.m.n.b.b.n.#XQ.U g t O.=.3.h $ 6 h %X#X,X<X1XP.v.l.v.l.l.l.l.",
"Z.b.b.v.v.v.m.`.E f 5 $ %..Xa.$ X & 3 ..[. X+X<X;Xn.v.v.x.x.x.v.",
"b.v.x.x.l.l.&XQ.a 5 2 5 3. Xa.3 @ $ @ d W 6.s. X4XZ.m.b.b.b.b.b.",
"v.x.x.l.l.l.;X..a a g f s.a.=.$ = * # 2 d h Q 3.4XK.Z.m.C.m.m.m.",
"v.x.l.l.l.k.1XW h f a d W =.#.q 5 * # * a 3 t t 4XK.A.Z.m.n.m.m.",
"v.x.v.x.l.l.2Xf 6 4 * @ % O.$.q 5 * !.g @ @ 5 W.E.A.S.A.m.n.b.v.",
"x.v.v.v.x.v.;XY 1 @ X X + +.$.q @ & }.-X{.].=XE.b.m.A.S.A.m.b.v.",
"x.v.v.v.v.n.P.`.E I #   + +.+.q # @ }.8.u.X.B.b.b.m.A.S.S.S.m.m.",
"v.b.v.b.n.m.Z.P.%X].6 O w O.e % @ 2 XXm / >.i.u.B.A.S.S.S.C.m.m.",
"C.m.m.H.J.J.m.v.v.%X9 X % e % X @ 1 XXi m Z *.w.t.8.H.m.n.v.v.n.",
"C.Z.Z.J.K.Z.n.x.l.=XW 2       O 1 ..(.- V m *.-.>.w.i.u.B.v.v.v.",
"v.m.J.J.J.m.b.j.X.XXU 7   . . o 1 u.^.0 M C M Z Z -.:.w.q.X.B.l.",
"j.l.x.v.n.v.B.u.:.].D 1 . : ; > 8 ' XXC V M Z Z b Z -.-.;.t./ l.",
"f.g.Y 9 g.G.i.r.,.`.S : ; : : < 8 H ,X1.2.2.Z Z b Z -.w.w./ j l.",
"N.W r - m p.,.b s ~., < : S T < A S =X5.2.*.*.1.:.<.9.-.k s i v.",
"b r x *.1.v s u 0 ~., < : ' X., A S ).q.2.9.w.t.r.C j p p u u v.",
"x x k <.r.Z j - - ~., , < >X].< A A V.oX2.r.r.Z j p u u u i I b.",
"g.l j Z Z 0.e.-.k (.J 8 o.OX[.' H T |.p.,.-.j x p i u i i I c.m.",
"C.C.R C C *.:.0.t.(.~.W.^.5.i.(.!.(.(.-.<.m p u r p p s s P C.Z.",
"J.D.Z.` n C ( -.:.0.e.9.;.1.r.t.w.Z j j 1.-.- i p r s J z.b.n.m.",
"J.D.C.) / M M Z Z -.( 9.w.<.w.*.j j i i :.:.u i u J z.v.v.v.v.b.",
"C.C.C.M.) C C C C C m Z k m m j i r r i C 1.z { C.S.C.n.b.b.v.v.",
"v.b.b.n.B.) b m Z C n C j c b r r i i i k :.N.K.S.S.S.m.n.v.b.v.",
"x.x.v.b.n.m.c.) C C Z C p b k p r - x L H.,. .m.m.Z.S.A.C.n.b.n.",
"x.x.v.b.n.Z.Z.D.F. .b m k k v i x L C.D.H.4.4.v.v.n.m.m.Z.m.m.Z."
};
