/* XPM */
static char *_d1eae6b188c4838f67508be1db191b0bcjj3HCqUGjK51Df[] = {
/* columns rows colors chars-per-pixel */
"32 32 204 2 ",
"   c #08080C",
".  c #080F1C",
"X  c #1C1212",
"o  c #14151B",
"O  c #120F11",
"+  c #360A0B",
"@  c #211614",
"#  c #2B1E1B",
"$  c #261917",
"%  c #3C1B1B",
"&  c #2D0F10",
"*  c #2D211E",
"=  c #34221E",
"-  c #3B211E",
";  c #3E321D",
":  c #0E1929",
">  c #111C2B",
",  c #1A202D",
"<  c #1A2434",
"1  c #1E2A3C",
"2  c #192536",
"3  c #292528",
"4  c #342522",
"5  c #392723",
"6  c #372925",
"7  c #3A2825",
"8  c #3D2D2B",
"9  c #312C2E",
"0  c #222C3B",
"q  c #222836",
"w  c #3A3239",
"e  c #323033",
"r  c #491F1E",
"t  c #470E0E",
"y  c #70181B",
"u  c #41341F",
"i  c #482724",
"p  c #512120",
"a  c #443721",
"s  c #463922",
"d  c #4A3C25",
"f  c #41312E",
"g  c #463C2B",
"h  c #443531",
"j  c #493935",
"k  c #473A38",
"l  c #513F38",
"z  c #583D35",
"x  c #53432A",
"c  c #5A4A2D",
"v  c #594839",
"b  c #4B4033",
"n  c #614E2E",
"m  c #66502F",
"M  c #614F32",
"N  c #655234",
"B  c #6B5432",
"V  c #6D5936",
"C  c #61513A",
"Z  c #735C37",
"A  c #745E3A",
"S  c #785F3B",
"D  c #76613B",
"F  c #7B633C",
"G  c #212D42",
"H  c #273347",
"J  c #313944",
"K  c #383D45",
"L  c #383A55",
"P  c #2C3759",
"I  c #413C47",
"U  c #3C4253",
"Y  c #39404A",
"T  c #3C4468",
"R  c #4A4647",
"E  c #5A4946",
"W  c #4B4C54",
"Q  c #4B4757",
"!  c #5C565B",
"~  c #514950",
"^  c #68564C",
"/  c #7A5649",
"(  c #6B5B56",
")  c #6E554B",
"_  c #7D6641",
"`  c #7F6840",
"'  c #6E665E",
"]  c #474A66",
"[  c #514F6C",
"{  c #595B77",
"}  c #485071",
"|  c #605D70",
" . c #725B65",
".. c #68646F",
"X. c #7A7469",
"o. c #747676",
"O. c #6F676B",
"+. c #8F1C1E",
"@. c #9E1F22",
"#. c #9C2428",
"$. c #A62729",
"%. c #B5292C",
"&. c #C23A3C",
"*. c #81403C",
"=. c #866A3E",
"-. c #97524B",
";. c #826A43",
":. c #896F45",
">. c #8C7245",
",. c #8D7149",
"<. c #91774B",
"1. c #95794B",
"2. c #9A7C4D",
"3. c #947746",
"4. c #966457",
"5. c #987E53",
"6. c #8C7550",
"7. c #85736A",
"8. c #907471",
"9. c #A57370",
"0. c #9F804F",
"q. c #9F8152",
"w. c #9A845C",
"e. c #A38353",
"r. c #A78856",
"t. c #AD8C5A",
"y. c #AA8A56",
"u. c #B18F5B",
"i. c #8A8377",
"p. c #918878",
"a. c #9E8464",
"s. c #AD8E61",
"d. c #A58A67",
"f. c #AD946D",
"g. c #B28A7C",
"h. c #BD877A",
"j. c #AC9379",
"k. c #384486",
"l. c #364CB3",
"z. c #5D5D81",
"x. c #414B83",
"c. c #5C678A",
"v. c #6D6E8E",
"b. c #7A7798",
"n. c #737490",
"m. c #535EA4",
"M. c #7778A7",
"N. c #3C57CD",
"B. c #3453D9",
"V. c #3856D5",
"C. c #3356ED",
"Z. c #3459EF",
"A. c #3F5CE0",
"S. c #2E54F5",
"D. c #3157F2",
"F. c #345AF4",
"G. c #385EF3",
"H. c #3C62F3",
"J. c #455EC5",
"K. c #465FD8",
"L. c #5468C9",
"P. c #536CD9",
"I. c #717DC6",
"U. c #4564E4",
"Y. c #4266F4",
"T. c #4569F5",
"R. c #486CF6",
"E. c #5374F6",
"W. c #4E70F7",
"Q. c #617EF8",
"!. c #847B91",
"~. c #A37D8B",
"^. c #7E86B5",
"/. c #6E82CF",
"(. c #7887CA",
"). c #6580EF",
"_. c #798DE9",
"`. c #6784F6",
"'. c #7992F8",
"]. c #888683",
"[. c #9B9387",
"{. c #908594",
"}. c #A49987",
"|. c #BFAC8C",
" X c #ABA296",
".X c #B8AD9B",
"XX c #998CA9",
"oX c #8F90B7",
"OX c #9392B0",
"+X c #CFA998",
"@X c #E1A394",
"#X c #C6AEA2",
"$X c #E8C3B2",
"%X c #8794D1",
"&X c #8F96C4",
"*X c #94A2DC",
"=X c #B0AFDE",
"-X c #879BEF",
";X c #9FAAEF",
":X c #8EA3F9",
">X c #97AAF7",
",X c #A3B4FB",
"<X c #C7C0DF",
"1X c #E4CBCB",
/* pixels */
"H.F.F.F.F.S.S.S.S.S.S.F.`.,X,X,X,X-XW.F.F.F.F.G.T.R.R.R.R.R.R.R.",
"H.F.F.F.F.F.D.D.D.F.D.E.(.T T  .9.XX:XG.G.F.F.G.T.T.T.T.T.T.T.T.",
"D.F.H.T.Y.Y.Y.Y.T.H.H.>X{ P P 8.~.~.>XT.T.Y.F.F.G.G.G.G.F.D.F.F.",
"D.F.H.T.R.T.R.R.R.W.E.(.Y G P ] [ z.*XE.T.Y.F.G.F.G.F.F.S.S.S.S.",
"S.S.F.G.F.G.G.F.H.T.'.n.K e Q L H 3 c.`.F.H.T.Y.T.Y.D.S.S.S.S.S.",
"D.F.F.F.G.F.F.F.G.'.*X{ o b / a i ] I.Y.S.F.T.T.T.H.D.S.S.S.S.S.",
"H.T.T.R.H.F.F.R._.OX( 8 O / 9.4.) ^ XXE.S.D.D.D.F.D.S.S.F.F.F.F.",
"H.R.R.R.Y.F.F._.n.E f p #.-.4.z % 8 l oX_.=X<X;XW.S.S.S.F.F.F.D.",
"R.R.R.R.H.D.H.I.! k 8 % &.@Xh.- @ # 5  .XX+X$X1X:XF.S.S.F.D.S.S.",
"T.T.T.R.H.S.'.n.h 6 4 7 4.+Xg.6 # # = j E 8.g.|.,XF.F.Z.F.D.S.S.",
"H.G.G.G.F.S.:X .h 8 h j g.h.-.- - = @ 5 j z / 4.,XS.Y.Y.D.S.S.S.",
"H.F.F.F.S.S.>X~ b j f h ) *.$.r 5 = X 5 f 7 f f ,XF.T.T.F.D.D.D.",
"F.F.S.F.S.S.>Xl h 7 = # & +.%.p 7 5 v.w * # 6 v.`.F.R.R.R.T.T.T.",
"F.F.F.S.F.S.:XQ * # & X + @.%.r # # oX-X^.oX%X).F.H.T.T.T.T.T.H.",
"F.F.H.T.T.T.`.^.Q K @   + @.@.% # # OXb.i.n.P.T.T.T.H.F.G.G.Z.F.",
"F.F.H.R.R.R.R.`.*X(.9 O t +.y & $ *  XN ` <.d.{.P.T.F.F.D.D.S.S.",
"F.F.H.R.H.H.H.H.H.%Xw @ & y & o # 3 [.a V D =.q.s.b.A.S.S.S.S.S.",
"F.F.H.T.H.F.S.F.H.&XC 6       O 3 ^ i.; m V =.=.>.e.t.!.K.S.S.S.",
"S.S.D.F.S.S.S.Z.M. Xb 9   . . o # ' X.u V D Z F F F <.e.a.b.K.F.",
"S.S.D.D.D.D.A.[.:.].J 3 . > > , 3 W }.F B Z F D N F ;.;.:.s._ F.",
"D.U.! K J.^.f.w.6.^.3 > : > > < 1 Y .X0.1.3.F F B F ;.e.e.F x S.",
"L.' a u ^ s.6.M x o.1 , > 0 K 2 G H  X0.0.F =.0.:.1.q.;.c x s S.",
"C d a :.0.n d s s o.1 2 : Y ' 1 G G ].w.>.0.e.u.y.D x d g a s S.",
"j d c <.y.F x ; ; o.1 2 2 .X[.2 G H ..|.>.y.r.F x d a a a a U S.",
"J.R x F ;.q.t.;.c [.Y 0 ! |.[.W J U }.s.<.;.x x d a ; g s L B.S.",
"R.K.] A Z ;.>.q.u.f.p.X.p.6.w.j.i.}.f.;.1.V d a a d s g g l.S.S.",
"F.F.Z.( B S ` ;.>.q.t.0.F 0.r.u.r._ x x 2.;.u a a a g } V.S.S.S.",
"D.S.D.| F Z Z F F ` ` 0.q.0.q.F x d a a ,.>.u a 8 T V.F.H.F.D.D.",
"F.S.H.U...D D D V D Z F c V B x s a ; s A 2.R x.V.H.F.F.Y.R.Y.Y.",
"F.D.H.Y.L...N V F D B D x M N a ; d s s M >.m.F.F.F.F.F.Y.Y.Y.T.",
"S.S.S.F.D.F.N.{ _ D F F d N c d s ; g k.N.<.z.S.S.S.S.S.D.D.D.F.",
"S.S.S.S.S.S.S.S.N.{ C Z c x n g w k.B.S.D.7.7.F.S.S.S.S.S.S.S.S."
};
