/* XPM */
static char *_d61e460a3ba43f5a4bf09149fea857eZyZBOfukbZWP6sWS[] = {
/* columns rows colors chars-per-pixel */
"32 32 138 2 ",
"   c #ABA676",
".  c #B3AE7C",
"X  c #B6B280",
"o  c #BAB484",
"O  c #BEB987",
"+  c #BDB48D",
"@  c #BFB988",
"#  c #C2BD8C",
"$  c #C4BC92",
"%  c #C9BF98",
"&  c #C6C08F",
"*  c #C6C191",
"=  c #CAC594",
"-  c #CEC897",
";  c #CCC39A",
":  c #CEC999",
">  c #D2CC9C",
",  c #D6D09F",
"<  c #D1C7A1",
"1  c #D5CCA3",
"2  c #D8CFA7",
"3  c #D7CEA8",
"4  c #D8CFA8",
"5  c #D7D1A1",
"6  c #DAD4A4",
"7  c #DED9A7",
"8  c #DCD4AB",
"9  c #DFD9A9",
"0  c #DFDBB1",
"q  c #DFDDBB",
"w  c #E0D7AF",
"e  c #E0DAAD",
"r  c #E1DAAE",
"t  c #E1DAAF",
"y  c #E2DBAE",
"u  c #E3DBAF",
"i  c #E0D8AD",
"p  c #E1DCAC",
"a  c #E0DCAD",
"s  c #E2DCAC",
"d  c #E3DEAD",
"f  c #E1DCAF",
"g  c #E2DCAE",
"h  c #E3DCAF",
"j  c #E3DDAF",
"k  c #E1DCAB",
"l  c #E1D7B1",
"z  c #E1D8B0",
"x  c #E1D9B0",
"c  c #E0D8B1",
"v  c #E1D8B1",
"b  c #E2D9B0",
"n  c #E2D8B1",
"m  c #E2D9B1",
"M  c #E3D9B1",
"N  c #E3DAB1",
"B  c #E2D9B2",
"V  c #E3D9B2",
"C  c #E2D8B3",
"Z  c #E3D9B3",
"A  c #E3DAB2",
"S  c #E3DAB3",
"D  c #E4D9B3",
"F  c #E4DAB3",
"G  c #E4DBB3",
"H  c #E3DEB0",
"J  c #E4DDB0",
"K  c #E4DDB1",
"L  c #E5DDB1",
"P  c #E5DEB1",
"I  c #E4DFB1",
"U  c #E5DDB2",
"Y  c #E5DEB2",
"T  c #E3DAB4",
"R  c #E3DBB5",
"E  c #E4DAB4",
"W  c #E4DBB4",
"Q  c #E5DBB4",
"!  c #E4DBB5",
"~  c #E6DBB5",
"^  c #E4DBB6",
"/  c #E5DCB5",
"(  c #E6DCB5",
")  c #E6DCB6",
"_  c #E3DAB2",
"`  c #E8DFB5",
"'  c #E0DEBD",
"]  c #E5DDB8",
"[  c #E9DFB9",
"{  c #E5E0AF",
"}  c #E6E1B0",
"|  c #E7E2B1",
" . c #E7E2B2",
".. c #E7E2B1",
"X. c #E8E3B1",
"o. c #E8E3B2",
"O. c #EAE5B4",
"+. c #EBE5B5",
"@. c #EAE4B4",
"#. c #E9E0B8",
"$. c #EBE1B9",
"%. c #EAE3B9",
"&. c #EBE3B9",
"*. c #EBE1BA",
"=. c #ECE4BB",
"-. c #EDE3BC",
";. c #EFE6BE",
":. c #ECE2BB",
">. c #F0E6BF",
",. c #F0EABA",
"<. c #F1EBBA",
"1. c #F6F0BF",
"2. c #E1DFC1",
"3. c #E9E4C6",
"4. c #ECE9CD",
"5. c #F1E8C0",
"6. c #F3EBC3",
"7. c #F6ECC6",
"8. c #F6EDC6",
"9. c #F3E8C1",
"0. c #F2EFCD",
"q. c #F6F2C0",
"w. c #F9F5C3",
"e. c #F6F0C8",
"r. c #F5F3CA",
"t. c #F8F2CA",
"y. c #F9F3CC",
"u. c #FCF6CE",
"i. c #F7F5D5",
"p. c #FDFCD3",
"a. c #F5F4DE",
"s. c #FAF8DA",
"d. c #FCFADC",
"f. c #FFFFE2",
"g. c #F9F8E7",
"h. c #FDFDEF",
"j. c #FBFBEB",
"k. c #FEFDF0",
/* pixels */
"; $ 9 t 8 9 6 6 t P 6 , , > , , { 7 7 7 5 5 8 8 6 6 0.i.5 = 1 5 ",
"= $ 8 t w t 6 6 t Q 6 6 > > , , 7 { 7 7 5 5 8 8 6 8 r.i.5 = 5 5 ",
"9 7 5 5 8 8 Q Q $ + > > - - > > q 2.H M d.f.9 7 8 6 5 5 6 8 | | ",
"0 9 6 6 T M M M $ # > > > > > , q q / M i.d.9 7 6 8 1 5 6 8 | O.",
"M w &.-.8.8.6 , , , > , 6 6 6 6 6 7 9 { H / ) ) 6 2 - - > : ;.8.",
"c 8 [ &.6.6.5 5 5 > 5 5 6 6 5 6 5 6 7 9 M M / ) 8 5 > > > > &.>.",
": : 5 1 5 5 7 6 > : 7 7 > > 6 6 . . - , 5 6 9 k P P d P 7 6 & # ",
"> : > 1 6 6 7 6 > > 7 k > > 8 9 o . - , 5 5 9 j d Q t t 7 6 & O ",
"H j , , M M 5 , M ) / / Q c D D : = - - > > t M 8 1 * # u -.- & ",
"H j , , M Q 6 5 M ) ) ) D c D ) > : - - - > t Q 4 1 # # t -.> * ",
"> - 7 6 > > g.h.5 > | o.9 7 8 8 1 > O.,.k 6 * & ; - > > , , & # ",
": - 6 7 - > g.h.8 > | o.9 6 8 8 5 5 O.,.k 6 * & - - > - 6 , & # ",
"@ o 8 8 ; % 5 6 @ @ 7 9 6 , > > > > , 5 M ) y.u.u 6 C D k 7 2 2 ",
"& O 4 8 ; ; 6 6 * @ 7 7 6 6 , , 5 5 , , M D e.t.u 7 c C 9 9 8 2 ",
"6 , , 5 0 c 6 5 6 6 > , 9 j <.1.k 6 < ; 5 5 , 5 7 7 0 0 3.4.T C ",
"7 6 , 5 C C 6 1 6 6 : : k { <.w.9 7 1 < > , > > 6 7 8 8 3.4.] T ",
"i k 8 i ` >.~ M w w > > C ~ c w 1 > e.p.- # 5 6 , > 4 4 8 8 7 6 ",
"k 6 8 i ` [ M C 4 w 1 > u C w 8 5 1 r.p.- & 6 7 5 5 8 4 8 8 6 7 ",
"$ # 1 6 C C 6 6 2 6 4 8 > ; > > 5 5 9 9 , , +.+.7 5 9 8 2 2 d o.",
"# # , 1 u C 6 1 , , 8 4 1 - > > 6 6 6 6 7 7 +.<.7 6 8 c 1 1 d o.",
"d 7 8 4     6 u = * $.$., , 6 4 -.3.,.,.} { , , , 6 a.j.M , 6 6 ",
"k k w 8     i w = $ ` -.6 , 4 8 -.>.,.,.} { , , 6 6 a.j.H > , 6 ",
"> - w C k k ; % 1 5 5 , 6 6 , , 7 k 7 7 , 7 1.w.7 : , , > > # O ",
"> - w Q d d ; ; 6 k , , 6 k , > 6 6 6 6 , , 1.w.7 > > > - - # o ",
"[ ) 9 9 , 5 | | 7 7 > > 7 9 * # = = 5 6 5 , , , 6 8 9 0 1 : > : ",
"-.-.7 8 : > | #.7 7 > > 7 7 * # $ $ 6 7 6 1 > > 8 8 M H > > > > ",
"M 9 T M - - o o - > > > > > #.-.i 9 >.>.) Q k 6 9 9 6 , w c 3 1 ",
"0 9 T M - - . . - - > > > > -.>.c 8 >.9.( Q k k k { , , w D 3 < ",
"0 0 4 4 , > - = 2 8 < < 6 , k k : - 7 w $ # > 1 M ) ; ; > > 8 8 ",
"C 0 4 5 , , : : 6 9 < 1 6 6 k k = $ 6 7 # o > , t D ; = : - 8 8 ",
"2 1 9 a , , & & r.p.7 7 - = t [ 6 , $.-.> - 1 8 8 9 6 6 5 , = $ ",
"5 > a 9 , , & @ t.p.k 7 = & M &.7 6 -.>., > 6 6 8 8 6 6 5 , * * "
};
